<?xml version="1.0" encoding="UTF-8"?>
<svg id="Layer_1" xmlns="http://www.w3.org/2000/svg" width="1680" height="1280" viewBox="0 0 1680 1280">
    <defs><style>.cls-1{fill:#287579;}.cls-2{fill:#ddc129;}.cls-3{fill:#fff;}.cls-3,.cls-4{stroke:#231f20;stroke-miterlimit:10;stroke-width:18.92px;}.cls-5{fill:#2fb894;}.cls-6{fill:#c9952c;}.cls-7{fill:#da1f28;}.cls-4{fill:none;}</style></defs>
    <g transform="translate(300, 0)">
        <circle class="cls-4" cx="536.75" cy="298.51" r="229.44"/>
        <circle class="cls-4" cx="792.7" cy="483.01" r="229.44"/>
        <circle class="cls-4" cx="286.13" cy="483.01" r="229.44"/>
        <circle class="cls-4" cx="384.25" cy="777.89" r="229.44"/>
        <circle class="cls-4" cx="691.39" cy="777.89" r="229.44"/>
        <circle class="cls-3" cx="540.36" cy="573.25" r="99.37"/>
        <path class="cls-4" d="M550.01,668.95c56.71-100.69.9-191.01.9-191.01"/>
        <path class="cls-4" d="M466.8,517.38s71.9,49.07,145.51,0"/>
        <path class="cls-4" d="M468.75,633.19s61.13-49.87,145.51,0"/>
        <line class="cls-4" x1="445.36" y1="575.64" x2="634.07" y2="575.64"/>
        <path class="cls-4" d="M530.78,668.84c-56.71-100.69-.9-191.01-.9-191.01"/>
        <path class="cls-6" d="M781.4,226.18s265.91,17.75,264.83,250.45c0,0,7.25,178.96-186.19,243.44,0,0-30.78,8.58-32.43-14.5,0,0-1.38-4.61.39-10.62,1.85-6.3,6.69-11.28,12.75-13.8,10.59-4.39,34.67-14.19,46.42-17.4,0,0,21.08-2.41,32.41-51.05,1.68-7.2,4.81-14.01,9.55-19.68,4.71-5.62,11.84-11.94,22.42-16.97,21.92-10.4,37.7-30.8,41.15-54.82,3.01-20.95-1.13-41.82-22.13-62.36-12.93-12.64-21.73-28.92-25.66-46.56-1.44-6.45-2.78-11.66-4.14-16.74-2.09-7.79-5.03-15.34-8.89-22.43-6.58-12.09-18.23-28.96-36.23-40.27,0,0-63.52-34.53-142.02-74.18,0,0-21.38-14.39-.79-31.72,0,0,18.78-1.88,28.55-.79Z"/>
        <circle class="cls-6" cx="918.11" cy="510.54" r="60.91"/>
        <circle class="cls-5" cx="780.46" cy="859.66" r="60.91"/>
        <circle class="cls-2" cx="330.99" cy="897.7" r="60.91"/>
        <circle class="cls-1" cx="157.11" cy="469.76" r="60.91"/>
        <path class="cls-7" d="M791.74,303.31s-31.73-264.61-264.04-251.28c0,0-179.06,2.18-233.28,198.7,0,.03-.02.06-.02.09-.28,1.3-6.43,31.16,16.2,31.58,0,0,11.82,2.87,21.6-8.88.13-.15.22-.32.29-.5,1.22-3.37,13.53-37.55,16.73-52.3,0,0,2.95-24.46,56.33-38.25,0,0,16.87-4.86,27.48-29.77,10.4-24.42,32.29-42.36,58.61-45.82,18.81-2.47,37.87,1.61,57.39,19.39,13.6,12.39,30.54,20.54,48.69,23.61,9.48,1.61,16.34,3.15,24.13,4.83.04,0,.07.02.11.03,1.59.46,36.68,10.95,57.21,40.02.03.04.05.07.07.11,1.25,2.04,38.5,62.8,81.46,137.77.04.07.08.12.12.19.89,1.14,10.44,12.81,22.12,7.37,5.99-2.79,9.64-9.02,9.74-15.63.1-6.36.04-15.45-.92-21.26Z"/>
        <circle class="cls-7" cx="498.62" cy="179.81" r="60.91"/>
        <path class="cls-1" d="M391.8,245.55S129.65,170.07,49.69,394.44c0,0-76.95,163,107.06,301.78,0,0,19.82,15.88,29.44-5.76,0,0,1.9-5.34.37-11.56-2.16-8.78-5.31-11.53-10.27-16.06-8.66-7.91-20.29-15.2-30.49-22.38,0,0-30.98-22.7-21.77-78.88,0,0,2.78-22.65-17.82-38.47-19.79-15.2-25.62-43.06-20.46-67.47,4.44-21.04,15.7-39.53,42.85-51.92,16.87-7.7,31.05-20.29,40.99-35.93,4.58-7.2,8.31-12.55,12.24-18.13,1.94-2.76,4.08-5.38,6.41-7.82,8.11-8.46,27.43-26.04,53.41-32.66,2.01-.51,4.05-.87,6.11-1.18,14.81-2.22,80.85-11.97,159.43-21.5,0,0,16.37-4.1,15.87-17.95-.25-6.76-4.66-12.68-10.86-15.41-5.96-2.63-14.55-6.19-20.41-7.6Z"/>
        <path class="cls-2" d="M180.05,611.97s-144.44,229.24,47.52,367.52c0,0,142.78,112.98,311.47-7.46.02-.01.03-.02.04-.03.72-.58,25.18-20.39,7.46-35.32,0,0-2.9-3.81-8.77-5.96-6.45-2.36-13.66-1.27-19.49,2.37-7.9,4.93-14.74,12.72-22.1,19.57-4.29,3.99-9.37,7.06-14.92,8.97-13.07,4.5-34.89,9.64-73.69-6.87,0,0-16.44-6.97-40.76,5.9-23.85,12.62-52.63,12.76-75.62-1.37-16.43-10.09-28.86-25.52-32.89-52.05-2.81-18.51-10.97-35.79-23.33-49.85-6.45-7.34-10.88-12.94-15.95-19.26-.03-.03-.05-.06-.07-.09-.97-1.4-21.95-32.15-19.53-68.24,0-.04,0-.08.01-.12.31-2.32,9.82-74.18,23.93-160.95.01-.08.02-.15.02-.23.02-1.47-.04-16.8-12.74-19.99-6.52-1.63-13.38.95-17.7,6.1-4.15,4.96-9.93,12.17-12.89,17.37Z"/>
        <path class="cls-5" d="M466.24,901.48s159.18,213.74,354.07,86.59c0,0,154.26-91,103.48-288.48,0,0-9.5-30.51-29.78-19.38,0,0-4.62,1.34-8.71,6.09-4.28,4.98-5.85,11.74-4.67,18.2,2.05,11.28,6.89,36.82,10.57,48.44,0,0,9.61,22.69-29.84,61.2,0,0-15.05,12.02-9.4,38.31,4.25,19.79-3.94,47.67-18.32,61.91-16.83,16.66-37.66,26.99-69.33,19.79-17.79-4.04-36.39-2.39-53.51,3.91-9,3.31-15.7,5.39-23.29,7.79,0,0-36.62,9.13-69.65-6.26,0,0-63.46-34.62-139.36-79.06,0,0-15.16-6.5-22.96,4.57-3.81,5.41-3.87,12.62-.67,18.4,3.08,5.57,7.66,13.42,11.38,17.98Z"/>
    </g>
</svg>